<svg xmlns="http://www.w3.org/2000/svg" version="1.1" xmlns:xlink="http://www.w3.org/1999/xlink" xmlns:svgjs="http://svgjs.dev/svgjs" width="100%" height="100%" viewBox="0 0 1000 600"><rect width="1000" height="600" x="0" y="0" fill="#df678c"/><g><circle r="166.66666666666666" cx="360.09333292643225" cy="382.31550305162864" fill="#591902" transform="matrix(0.6462399855942336,0,0,0.6462399855942336,0,52.93245177794674)"/><path d="M302.94772211341245 342.3938115454879L302.94772211341245 432.55430039230873Q302.94772211341245 439.77631030629436 300.0531863939182 444.53366604328494Q297.158650674424 449.2623630107755 292.8311764799326 452.04226365227Q288.5037022854412 454.85082306326444 283.2304886974517 456.08315015176197Q277.9859338789621 457.3154772402595 273.2285781419716 457.3154772402595L273.2285781419716 457.3154772402595L273.2285781419716 337.4358444219978Q273.2285781419716 322.9918245940265 279.82009512695845 315.1393217510421Q286.4402708814453 307.3154776775576 298.8208593054207 307.3154776775576L298.8208593054207 307.3154776775576Q305.0111535174084 307.3154776775576 308.93740493890056 309.3789090815535Q312.83499759089284 311.4423404855494 315.0130640728885 314.7380989780429Q317.1911305548842 318.0338574705363 317.9935761008826 321.84547381402876Q318.82468041638094 325.6570901575212 318.82468041638094 329.18211880601416L318.82468041638094 329.18211880601416Q318.82468041638094 331.0449388235105 318.4234576433817 331.84738436950886L318.4234576433817 331.84738436950886Q315.72953331038707 329.58334157901334 312.03255204489443 329.58334157901334L312.03255204489443 329.58334157901334Q308.93740493890056 329.58334157901334 307.1605612299041 330.7296923590111Q305.41237629040756 331.84738436950886 304.4952956664094 333.6242280785053Q303.5495562729113 335.3724130180019 303.26296857791186 337.63645580849743Q302.94772211341245 339.90049859899284 302.94772211341245 342.3938115454879L302.94772211341245 342.3938115454879ZM321.0887232068764 350.84814854797116L321.0887232068764 307.7167004505568L323.78264753987105 307.7167004505568Q335.5327430348477 307.7167004505568 343.18463449133253 315.0533454425423Q350.80786717831734 322.3613316650277 350.80786717831734 336.20351733350026L350.80786717831734 336.20351733350026L350.80786717831734 357.86954707545715Q350.80786717831734 371.48246258793006 344.1017151153307 378.50386111541616Q337.395563052344 385.49660087340226 327.90951034786286 385.92648241590143L327.90951034786286 385.92648241590143L326.47657187286575 385.92648241590143Q320.68750043387723 385.92648241590143 316.761249012385 383.86305101190555Q312.83499759089284 381.79961960790956 310.4849784918975 378.58983742391604Q308.1063006234022 375.4087140094223 307.07458492140427 371.56843889642994Q306.0428692194063 367.7568225529375 306.0428692194063 364.0598412874449L306.0428692194063 364.0598412874449Q307.4758076944035 365.2921683759424 308.708134782901 365.80802622694137Q309.96912064089855 366.3238840779404 313.6661019063912 366.3238840779404L313.6661019063912 366.3238840779404Q316.36002623938583 366.3238840779404 317.90759979238277 364.7763105249435Q319.4551733453797 363.22873697194655 320.17164258287823 360.964694181451Q320.8881118203768 358.6719926214556 321.0027468983766 355.89209197996115Q321.0887232068764 353.1121913384666 321.0887232068764 350.84814854797116L321.0887232068764 350.84814854797116ZM347.51210868582393 413.78280636984607L347.51210868582393 457.3154772402595L345.448677281828 457.3154772402595Q340.08948738533866 457.3154772402595 334.81627379734914 456.2837615382616Q329.57171897885956 455.2520458362636 325.330221092868 452.55812150326904Q321.0887232068764 449.8928559397742 318.4234576433817 445.13550020278376Q315.72953331038707 440.40680323529307 315.72953331038707 432.7549117788084L315.72953331038707 432.7549117788084L315.72953331038707 389.0216295218953L319.02529180288053 389.0216295218953Q324.1838703128703 389.0216295218953 329.34244882286004 390.13932153239307Q334.5010273328498 391.2856723123907 338.5419138323417 394.0655729538852Q342.55414156233377 396.84547359537964 345.0474545088288 401.6028293323702Q347.51210868582393 406.3601850693608 347.51210868582393 413.78280636984607L347.51210868582393 413.78280636984607ZM399.0978937857214 342.3938115454879L399.0978937857214 432.55430039230873Q399.0978937857214 439.77631030629436 396.2033580662271 444.53366604328494Q393.3088223467329 449.2623630107755 388.9813481522415 452.04226365227Q384.6538739577501 454.85082306326444 379.38066036976056 456.08315015176197Q374.136105551271 457.3154772402595 369.37874981428047 457.3154772402595L369.37874981428047 457.3154772402595L369.37874981428047 337.4358444219978Q369.37874981428047 322.9918245940265 375.9989255687673 315.1393217510421Q382.5904425537542 307.3154776775576 394.9710309777296 307.3154776775576L394.9710309777296 307.3154776775576Q401.16132518971733 307.3154776775576 405.0875766112095 309.3789090815535Q409.01382803270167 311.4423404855494 411.1632357451974 314.7380989780429Q413.34130222719307 318.0338574705363 414.1724065426914 321.84547381402876Q414.97485208868983 325.6570901575212 414.97485208868983 329.18211880601416L414.97485208868983 329.18211880601416Q414.97485208868983 331.0449388235105 414.57362931569065 331.84738436950886L414.57362931569065 331.84738436950886Q411.879704982696 329.58334157901334 408.1827237172033 329.58334157901334L408.1827237172033 329.58334157901334Q405.0875766112095 329.58334157901334 403.339391671713 330.7296923590111Q401.5625479627165 331.84738436950886 400.64546733871833 333.6242280785053Q399.72838671472016 335.3724130180019 399.4131402502208 337.63645580849743Q399.0978937857214 339.90049859899284 399.0978937857214 342.3938115454879L399.0978937857214 342.3938115454879ZM417.2675536486853 350.84814854797116L417.2675536486853 307.7167004505568L419.93281921218 307.7167004505568Q431.71157347665655 307.7167004505568 439.3348061636414 315.0533454425423Q446.9580388506263 322.3613316650277 446.9580388506263 336.20351733350026L446.9580388506263 336.20351733350026L446.9580388506263 357.86954707545715Q446.9580388506263 371.48246258793006 440.2518867876396 378.50386111541616Q433.5457347246529 385.49660087340226 424.0596820201718 385.92648241590143L424.0596820201718 385.92648241590143L422.62674354517463 385.92648241590143Q416.8376721061862 385.92648241590143 412.91142068469395 383.86305101190555Q409.01382803270167 381.79961960790956 406.6351501642064 378.58983742391604Q404.25647229571115 375.4087140094223 403.2247565937132 371.56843889642994Q402.19304089171527 367.7568225529375 402.19304089171527 364.0598412874449L402.19304089171527 364.0598412874449Q403.6259793667124 365.2921683759424 404.8869652247099 365.80802622694137Q406.11929231320744 366.3238840779404 409.8162735787001 366.3238840779404L409.8162735787001 366.3238840779404Q412.5101979116948 366.3238840779404 414.05777146469165 364.7763105249435Q415.6053450176886 363.22873697194655 416.3218142551872 360.964694181451Q417.0382834926857 358.6719926214556 417.15291857068553 355.89209197996115Q417.2675536486853 353.1121913384666 417.2675536486853 350.84814854797116L417.2675536486853 350.84814854797116ZM443.6622803581328 413.78280636984607L443.6622803581328 457.3154772402595L441.59884895413694 457.3154772402595Q436.2396590576476 457.3154772402595 430.966445469658 456.2837615382616Q425.7218906511685 455.2520458362636 421.48039276517693 452.55812150326904Q417.2675536486853 449.8928559397742 414.57362931569065 445.13550020278376Q411.879704982696 440.40680323529307 411.879704982696 432.7549117788084L411.879704982696 432.7549117788084L411.879704982696 389.0216295218953L415.20412224468936 389.0216295218953Q420.3627007546791 389.0216295218953 425.52127926466886 390.13932153239307Q430.6798577746586 391.2856723123907 434.69208550465066 394.0655729538852Q438.7043132346427 396.84547359537964 441.1976261811377 401.6028293323702Q443.6622803581328 406.3601850693608 443.6622803581328 413.78280636984607L443.6622803581328 413.78280636984607Z " fill="#d99518" transform="matrix(0.6462399855942336,0,0,0.6462399855942336,0,52.93245177794674)"/><path d="M639.0113229782053 310.74548275912423L639.0113229782053 456.50677419901183L637.0035148696015 456.50677419901183Q631.7887910319779 456.50677419901183 626.9644743265827 455.50287014470996Q622.1401576211875 454.4989660904081 618.4312898650167 451.87766105973094Q614.7224221088458 449.28424225278434 612.4078655392053 444.65512911350345Q610.0933089695649 440.0539021979532 610.0933089695649 432.6082804618809L610.0933089695649 432.6082804618809L610.0933089695649 334.83918006236956Q610.0933089695649 327.6166481161421 612.2963206442829 322.9875349768612Q614.4993323190009 318.3584218375803 618.12454140398 315.6534581357113Q621.749750488959 312.94849443384237 626.3509774045093 311.83304548461797Q630.9800905437902 310.74548275912423 635.8044072491854 310.74548275912423L635.8044072491854 310.74548275912423L639.0113229782053 310.74548275912423ZM643.222142761527 394.264722832295L643.222142761527 372.9875341258412L661.0972121728468 372.9875341258412Q661.0972121728468 377.5887610413914 660.4000565795815 381.4091736924847Q659.6750147625858 385.22958634357803 657.7787515489043 388.1297536115612Q655.882488335223 391.0578071032751 652.6476863824726 392.6473218559197Q649.4407706534527 394.264722832295 644.4212503819432 394.264722832295L644.4212503819432 394.264722832295L643.222142761527 394.264722832295ZM682.987897801374 329.8196597908601L682.987897801374 329.8196597908601Q682.987897801374 336.2334912488999 680.5617963368111 340.0539038999932Q678.1635810959788 343.8743165510865 674.733575577114 346.07732822580454Q671.3314562819799 348.28033990052256 667.5110436308865 348.9774954937877Q663.6906309797934 349.70253731078355 660.9020086067325 349.70253731078355L660.9020086067325 349.70253731078355Q658.4759071421696 349.70253731078355 656.886392389525 349.28424395482443L656.886392389525 349.28424395482443L656.886392389525 340.0539038999932Q656.886392389525 336.4286948150142 655.0737878470354 334.1420244691043Q653.2611833045459 331.82746789946384 649.8590640094118 331.82746789946384L649.8590640094118 331.82746789946384Q646.0386513583185 331.82746789946384 643.4173463276413 334.22568314029616L643.4173463276413 334.22568314029616Q642.8317356292986 332.63616838765154 642.7201907343762 331.32551587231296Q642.6086458394537 330.0148633569744 642.6086458394537 328.3974623805991L642.6086458394537 328.3974623805991Q642.6086458394537 325.60884000753833 643.724094788678 322.3740380547878Q644.8395437379023 319.1671223257679 647.1262140838122 316.5737035188214Q649.4407706534527 313.95239848814424 653.1496384096234 312.2513388405771Q656.886392389525 310.55027919301 662.1011162271486 310.55027919301L662.1011162271486 310.55027919301Q666.3119360104705 310.55027919301 670.1323486615637 311.9445903795404Q673.952761312657 313.33890156607083 676.7413836857178 315.960206596748Q679.5578922825092 318.58151162742513 681.2589519300763 322.09517581748173Q682.987897801374 325.60884000753833 682.987897801374 329.8196597908601ZM726.7413828346978 432.8034840279952L726.7413828346978 385.84308326565144Q726.7413828346978 383.41698180108847 726.4346343736611 381.21397012637044Q726.155772136355 379.0109584516524 725.2355267532449 377.3098988040854Q724.3431675938655 375.5809529327877 722.6421079462984 374.49339020729394Q720.9131620750007 373.37794125806965 717.901449912095 373.37794125806965L717.901449912095 373.37794125806965Q716.3119351594504 373.37794125806965 714.6108755118834 373.87989328522065Q712.8819296405857 374.3818453123715 711.4876184540552 375.5809529327877L711.4876184540552 375.5809529327877Q710.6789179658676 373.99143818014306 710.4837143997534 372.4855820986902Q710.2885108336391 370.97972601723734 710.2885108336391 369.3623250408622L710.2885108336391 369.3623250408622Q710.2885108336391 362.94849358282227 715.698438237377 358.7376737995005Q721.1362518648456 354.49896779244807 728.7491909433015 354.49896779244807L728.7491909433015 354.49896779244807Q740.7960395949242 354.49896779244807 747.2377572766945 360.6339370131818Q753.6515887347344 366.7689062339156 753.6515887347344 378.20225796346483L753.6515887347344 378.20225796346483L753.6515887347344 456.50677419901183Q749.0224755954534 456.50677419901183 744.3097037849808 455.39132524978754Q739.596931974508 454.3037625242938 735.6928606522229 451.5987988224249Q731.7609031062071 448.86594889682533 729.2511429704525 444.34838065246674Q726.7413828346978 439.8308124081083 726.7413828346978 432.8034840279952L726.7413828346978 432.8034840279952ZM707.8624093690762 354.49896779244807L707.8624093690762 425.1905449495391Q707.8624093690762 427.58876019037143 708.1691578301129 429.79177186508946Q708.4759062911496 432.02266976353815 709.3682654505291 433.7237294111052Q710.2885108336391 435.4247890586722 711.9895704812062 436.5402380078966Q713.6906301287733 437.62780073339036 716.7023422916789 437.62780073339036L716.7023422916789 437.62780073339036Q718.3197432680541 437.62780073339036 720.0208029156213 437.12584870623937Q721.7218625631883 436.6238966790884 723.1440599734493 435.4247890586722L723.1440599734493 435.4247890586722Q723.9248742379064 437.0421900350475 724.1479640277512 438.54804611650036Q724.3431675938655 440.0539021979532 724.3431675938655 441.64341695059784L724.3431675938655 441.64341695059784Q724.3431675938655 448.0851346323683 718.9053539663969 452.29595441569006Q713.4954265626591 456.50677419901183 705.8546012604725 456.50677419901183L705.8546012604725 456.50677419901183Q693.8077526088498 456.50677419901183 687.39392115081 450.09294274097203Q680.9800896927702 443.6512250592016 680.9800896927702 434.0304778721419L680.9800896927702 434.0304778721419L680.9800896927702 378.20225796346483Q680.9800896927702 371.5653367155802 683.4898498285248 367.04776847122173Q685.9996099642796 362.53020022686314 689.9036812865647 359.74157785380237Q693.8077526088498 356.92506925701105 698.5484106430532 355.7259616365949Q703.2611824535259 354.49896779244807 707.8624093690762 354.49896779244807L707.8624093690762 354.49896779244807ZM798.632067612205 378.20225796346483L798.632067612205 424.77225159358Q798.632067612205 427.19835305814297 798.9388160732417 429.401364732861Q799.2176783105477 431.604376407579 800.1379236936577 433.30543605514606Q801.0302828530373 435.03438192644376 802.7313425006043 436.1219446519375Q804.460288371902 437.2373936011618 807.4720005348076 437.2373936011618L807.4720005348076 437.2373936011618Q809.0615152874523 437.2373936011618 810.7625749350194 436.7354415740108Q812.4915208063171 436.2334895468599 813.8858319928474 435.03438192644376L813.8858319928474 435.03438192644376Q814.6945324810351 436.6238966790884 814.8897360471494 438.12975276054124Q815.0849396132636 439.6356088419941 815.0849396132636 441.25300981836926L815.0849396132636 441.25300981836926Q815.0849396132636 447.6668412764092 809.2567188535666 451.87766105973094Q803.4563843176002 456.11636706678337 794.4212478288832 456.11636706678337L794.4212478288832 456.11636706678337Q783.5735067976767 456.11636706678337 777.6337411430573 449.59099071382116Q771.7218617121683 443.06561436085883 771.7218617121683 430.40526878716287L771.7218617121683 430.40526878716287L771.7218617121683 354.722057582293Q772.7257657664702 354.49896779244807 773.5344662546579 354.49896779244807L773.5344662546579 354.49896779244807L775.3470707971474 354.49896779244807Q786.1669256046232 354.49896779244807 792.4134397202794 360.3271885521451Q798.632067612205 366.15540931184216 798.632067612205 378.20225796346483L798.632067612205 378.20225796346483ZM817.5110410778266 440.4443093301817L817.5110410778266 377.5887610413914Q817.5110410778266 371.3701331494659 819.7140527525446 366.96410980002986Q821.9170644272626 362.53020022686314 825.5422735122415 359.74157785380237Q829.13959637349 356.92506925701105 833.7687095127709 355.7259616365949Q838.3699364283212 354.49896779244807 843.1942531337164 354.49896779244807L843.1942531337164 354.49896779244807L844.3933607541326 354.49896779244807L844.3933607541326 410.5223912672394Q844.3933607541326 426.78005970218385 837.5891221638642 433.61218451618277Q830.7569973498653 440.4443093301817 817.5110410778266 440.4443093301817L817.5110410778266 440.4443093301817ZM861.4597296772646 323.6010318989346L861.4597296772646 323.6010318989346Q861.4597296772646 316.76890708493556 866.2840463826597 312.0561352744629Q871.108363088055 307.3154772402595 877.7452843359397 307.3154772402595L877.7452843359397 307.3154772402595Q884.3543193600938 307.3154772402595 889.0670911705665 312.0561352744629Q893.8077492047698 316.76890708493556 893.8077492047698 323.6010318989346L893.8077492047698 323.6010318989346Q893.8077492047698 330.40527048920285 889.0670911705665 335.03438362848374Q884.3543193600938 339.66349676776474 877.7452843359397 339.66349676776474L877.7452843359397 339.66349676776474Q871.108363088055 339.66349676776474 866.2840463826597 335.03438362848374Q861.4597296772646 330.40527048920285 861.4597296772646 323.6010318989346ZM864.4714418401702 433.61218451618277L864.4714418401702 354.49896779244807L866.7023397386189 354.49896779244807Q877.1317874138663 354.49896779244807 884.2706606889019 360.13198498603094Q891.381647740207 365.7650021796137 891.381647740207 378.00705439735054L891.381647740207 378.00705439735054L891.381647740207 456.50677419901183L890.1825401197907 456.50677419901183Q885.5534269805098 456.50677419901183 881.0358587361513 455.3076665785957Q876.5182904917929 454.1085589581795 872.809422735622 451.37570903257995Q869.1005549794511 448.67074533071104 866.7859984098106 444.34838065246674Q864.4714418401702 440.0539021979532 864.4714418401702 433.61218451618277L864.4714418401702 433.61218451618277ZM938.7603418585097 354.49896779244807L938.7603418585097 456.50677419901183L936.9756235397508 456.50677419901183Q932.3465104004699 456.50677419901183 927.8289421561115 455.39132524978754Q923.311373911753 454.3037625242938 919.7977097216964 451.5987988224249Q916.2840455316398 448.86594889682533 914.0810338569217 444.4599255473893Q911.8780221822037 440.0539021979532 911.8780221822037 433.61218451618277L911.8780221822037 433.61218451618277L911.8780221822037 378.20225796346483Q911.8780221822037 370.97972601723734 914.276237423036 366.35061287795645Q916.6744526638682 361.7493859624062 920.4948653149615 359.1280809317291Q924.3152779660549 356.5067759010519 929.13959467145 355.50287184674994Q933.9639113768451 354.49896779244807 938.7603418585097 354.49896779244807L938.7603418585097 354.49896779244807ZM983.1552100376375 374.3818453123715L983.1552100376375 374.3818453123715Q983.1552100376375 377.39355747527725 982.2349646545275 380.60047320429715Q981.342605495148 383.8352751570476 979.13959382043 386.4286939639942Q976.9086959219812 389.04999899467134 973.3950317319247 390.63951374731596Q969.8813675418683 392.25691472369124 964.6666437042445 392.25691472369124L964.6666437042445 392.25691472369124Q960.4558239209227 392.25691472369124 957.444111758017 391.44821423550354L957.444111758017 391.44821423550354L957.444111758017 384.6160894215046Q957.444111758017 380.21006607206857 955.8267107816419 377.19835390916296Q954.2371960289971 374.18664174625735 949.6080828897161 373.7962346140288L949.6080828897161 373.7962346140288Q947.4050712149981 373.7962346140288 945.8992151335453 374.49339020729394Q944.3933590520926 375.1905458005592 942.9990478655621 376.1944498548611L942.9990478655621 376.1944498548611Q941.5768504553012 373.37794125806965 941.5768504553012 369.7806183968213L941.5768504553012 369.7806183968213Q941.5768504553012 363.75719407100996 946.7915742929248 359.1280809317291Q952.0341843542791 354.49896779244807 961.2645244091103 354.49896779244807L961.2645244091103 354.49896779244807L962.6588355956408 354.49896779244807Q966.0888411145055 354.722057582293 969.686163975754 355.92116520270906Q973.3113730607329 357.1202728231252 976.3230852236386 359.51848806395753Q979.3347973865442 361.9445895285204 981.2310606002255 365.6534572846913Q983.1552100376375 369.3623250408622 983.1552100376375 374.3818453123715ZM983.1552100376375 437.0421900350475L983.1552100376375 437.0421900350475Q983.1552100376375 441.8386205167121 981.2310606002255 445.46382960169115Q979.3347973865442 449.08903868667016 976.3230852236386 451.4872539275025Q973.3113730607329 453.8854691683347 969.686163975754 455.1124630124815Q966.0888411145055 456.31157063289754 962.6588355956408 456.50677419901183L962.6588355956408 456.50677419901183L961.2645244091103 456.50677419901183Q952.0341843542791 456.50677419901183 946.7915742929248 451.87766105973094Q941.5768504553012 447.2764341441806 941.5768504553012 441.25300981836926L941.5768504553012 441.25300981836926Q941.5768504553012 437.62780073339036 942.9990478655621 434.8112921365989L942.9990478655621 434.8112921365989Q945.5924666725086 437.2373936011618 949.0224721913735 437.2373936011618L949.0224721913735 437.2373936011618Q954.041992462883 436.81910024520266 955.74305211045 433.80738808229705Q957.444111758017 430.79567591939133 957.444111758017 426.3896525699553L957.444111758017 426.3896525699553L957.444111758017 419.55752775595636Q960.4558239209227 418.7488272677688 964.6666437042445 418.7488272677688L964.6666437042445 418.7488272677688Q969.8813675418683 418.7488272677688 973.3950317319247 420.36622824414405Q976.9086959219812 421.9836292205192 979.13959382043 424.5770480274658Q981.342605495148 427.19835305814297 982.2349646545275 430.5168136820853Q983.1552100376375 433.80738808229705 983.1552100376375 437.0421900350475ZM1026.3230843726187 354.49896779244807L1026.3230843726187 425.1905449495391Q1026.3230843726187 427.58876019037143 1026.6019466099247 429.79177186508946Q1026.9086950709616 432.02266976353815 1027.8289404540715 433.7237294111052Q1028.7212996134508 435.4247890586722 1030.4223592610178 436.5402380078966Q1032.1234189085849 437.62780073339036 1035.1351310714908 437.62780073339036L1035.1351310714908 437.62780073339036Q1036.7525320478658 437.62780073339036 1038.4535916954333 437.12584870623937Q1040.1546513430003 436.6238966790884 1041.5768487532614 435.4247890586722L1041.5768487532614 435.4247890586722Q1042.3855492414486 437.0421900350475 1042.580752807563 438.54804611650036Q1042.7759563736772 440.0539021979532 1042.7759563736772 441.64341695059784L1042.7759563736772 441.64341695059784Q1042.7759563736772 448.0851346323683 1037.3660289699392 452.29595441569006Q1031.928215342471 456.50677419901183 1024.3152762640148 456.50677419901183L1024.3152762640148 456.50677419901183Q1012.2684276123922 456.50677419901183 1005.8267099306217 450.09294274097203Q999.412878472582 443.6512250592016 999.412878472582 434.0304778721419L999.412878472582 434.0304778721419L999.412878472582 378.20225796346483Q999.412878472582 371.5653367155802 1001.9226386083367 367.04776847122173Q1004.4323987440914 362.53020022686314 1008.3364700663765 359.74157785380237Q1012.2684276123922 356.92506925701105 1016.9811994228648 355.7259616365949Q1021.6939712333376 354.49896779244807 1026.3230843726187 354.49896779244807L1026.3230843726187 354.49896779244807ZM1072.0843775145463 378.20225796346483L1072.0843775145463 432.8034840279952Q1072.0843775145463 439.8308124081083 1069.5746173787916 444.34838065246674Q1067.0648572430368 448.86594889682533 1063.1607859207516 451.5987988224249Q1059.2288283747362 454.3037625242938 1054.4323978930715 455.39132524978754Q1049.6080811876764 456.50677419901183 1045.1741716145098 456.50677419901183L1045.1741716145098 456.50677419901183L1045.1741716145098 385.84308326565144Q1045.1741716145098 383.41698180108847 1044.8953093772034 381.21397012637044Q1044.588560916167 379.0109584516524 1043.668315533057 377.3098988040854Q1042.7759563736772 375.5809529327877 1041.0748967261102 374.49339020729394Q1039.3738370785431 373.37794125806965 1036.3621249156377 373.37794125806965L1036.3621249156377 373.37794125806965Q1034.7447239392623 373.37794125806965 1033.0436642916952 373.87989328522065Q1031.3426046441282 374.3818453123715 1029.920407233867 375.5809529327877L1029.920407233867 375.5809529327877Q1029.1117067456794 373.99143818014306 1028.916503179565 372.4855820986902Q1028.7212996134508 370.97972601723734 1028.7212996134508 369.3623250408622L1028.7212996134508 369.3623250408622Q1028.7212996134508 362.94849358282227 1034.1312270171888 358.7376737995005Q1039.5690406446574 354.49896779244807 1047.1819797231133 354.49896779244807L1047.1819797231133 354.49896779244807Q1059.2288283747362 354.49896779244807 1065.6705460565063 360.6339370131818Q1072.0843775145463 366.7689062339156 1072.0843775145463 378.20225796346483L1072.0843775145463 378.20225796346483ZM1135.9438298576383 432.4130768957666L1135.9438298576383 385.84308326565144Q1135.9438298576383 383.41698180108847 1135.6370813966018 381.21397012637044Q1135.330332935565 379.0109584516524 1134.4379737761856 377.3098988040854Q1133.5177283930752 375.5809529327877 1131.8166687455082 374.49339020729394Q1130.1156090979412 373.37794125806965 1127.1038969350357 373.37794125806965L1127.1038969350357 373.37794125806965Q1125.4864959586603 373.37794125806965 1123.7854363110932 373.87989328522065Q1122.0843766635262 374.3818453123715 1120.6900654769956 375.5809529327877L1120.6900654769956 375.5809529327877Q1119.8813649888084 373.99143818014306 1119.686161422694 372.4855820986902Q1119.4630716328488 370.97972601723734 1119.4630716328488 369.3623250408622L1119.4630716328488 369.3623250408622Q1119.4630716328488 362.94849358282227 1125.291292392546 358.7376737995005Q1131.1195131522431 354.49896779244807 1140.15464964096 354.49896779244807L1140.15464964096 354.49896779244807Q1151.0023906721667 354.49896779244807 1156.9142701030555 361.0243441454104Q1162.8540357576749 367.5497204983726 1162.8540357576749 380.21006607206857L1162.8540357576749 380.21006607206857L1162.8540357576749 456.50677419901183L1161.627041913528 456.50677419901183Q1149.5801932619056 456.50677419901183 1142.775954671637 450.7900983342372Q1135.9438298576383 445.07342246946257 1135.9438298576383 432.4130768957666L1135.9438298576383 432.4130768957666ZM1090.1546504919802 433.61218451618277L1090.1546504919802 354.49896779244807L1092.357662166698 354.49896779244807Q1102.814996065676 354.49896779244807 1109.9259831169811 360.13198498603094Q1117.0648563920167 365.7650021796137 1117.0648563920167 378.00705439735054L1117.0648563920167 378.00705439735054L1117.0648563920167 456.50677419901183L1115.8657487716005 456.50677419901183Q1111.2366356323196 456.50677419901183 1106.7190673879613 455.3076665785957Q1102.2014991436026 454.1085589581795 1098.492631387432 451.37570903257995Q1094.783763631261 448.67074533071104 1092.4692070616206 444.34838065246674Q1090.1546504919802 440.0539021979532 1090.1546504919802 433.61218451618277L1090.1546504919802 433.61218451618277ZM1182.9321168437127 443.06561436085883L1182.9321168437127 443.06561436085883Q1182.9321168437127 436.81910024520266 1187.1429366270345 432.6082804618809Q1191.3537564103563 428.3974606785591 1197.1819771700534 428.3974606785591L1197.1819771700534 428.3974606785591Q1203.4006050619787 428.3974606785591 1207.6114248453005 432.6082804618809Q1211.8222446286222 436.81910024520266 1211.8222446286222 443.06561436085883L1211.8222446286222 443.06561436085883Q1211.8222446286222 448.86594889682533 1207.6114248453005 453.10465490387764Q1203.4006050619787 457.3154746871995 1197.1819771700534 457.3154746871995L1197.1819771700534 457.3154746871995Q1191.3537564103563 457.3154746871995 1187.1429366270345 453.10465490387764Q1182.9321168437127 448.86594889682533 1182.9321168437127 443.06561436085883ZM1230.896421660358 323.6010318989346L1230.896421660358 323.6010318989346Q1230.896421660358 316.76890708493556 1235.7207383657533 312.0561352744629Q1240.5450550711485 307.3154772402595 1247.1819763190333 307.3154772402595L1247.1819763190333 307.3154772402595Q1253.7910113431872 307.3154772402595 1258.5037831536602 312.0561352744629Q1263.2444411878632 316.76890708493556 1263.2444411878632 323.6010318989346L1263.2444411878632 323.6010318989346Q1263.2444411878632 330.40527048920285 1258.5037831536602 335.03438362848374Q1253.7910113431872 339.66349676776474 1247.1819763190333 339.66349676776474L1247.1819763190333 339.66349676776474Q1240.5450550711485 339.66349676776474 1235.7207383657533 335.03438362848374Q1230.896421660358 330.40527048920285 1230.896421660358 323.6010318989346ZM1233.908133823264 433.61218451618277L1233.908133823264 354.49896779244807L1236.1390317217124 354.49896779244807Q1246.56847939696 354.49896779244807 1253.7073526719955 360.13198498603094Q1260.8183397233006 365.7650021796137 1260.8183397233006 378.00705439735054L1260.8183397233006 378.00705439735054L1260.8183397233006 456.50677419901183L1259.6192321028843 456.50677419901183Q1254.9901189636034 456.50677419901183 1250.4725507192452 455.3076665785957Q1245.9549824748865 454.1085589581795 1242.2461147187155 451.37570903257995Q1238.537246962545 448.67074533071104 1236.2226903929045 444.34838065246674Q1233.908133823264 440.0539021979532 1233.908133823264 433.61218451618277L1233.908133823264 433.61218451618277ZM1308.1970338416036 354.49896779244807L1308.1970338416036 425.1905449495391Q1308.1970338416036 427.58876019037143 1308.50378230264 429.79177186508946Q1308.810530763677 432.02266976353815 1309.7028899230563 433.7237294111052Q1310.6231353061662 435.4247890586722 1312.3241949537332 436.5402380078966Q1314.0252546013003 437.62780073339036 1317.0369667642062 437.62780073339036L1317.0369667642062 437.62780073339036Q1318.6543677405812 437.62780073339036 1320.3554273881487 437.12584870623937Q1322.0564870357157 436.6238966790884 1323.4786844459768 435.4247890586722L1323.4786844459768 435.4247890586722Q1324.2594987104335 437.0421900350475 1324.4825885002783 438.54804611650036Q1324.6777920663926 440.0539021979532 1324.6777920663926 441.64341695059784L1324.6777920663926 441.64341695059784Q1324.6777920663926 448.0851346323683 1319.239978438924 452.29595441569006Q1313.830051035186 456.50677419901183 1306.1892257329996 456.50677419901183L1306.1892257329996 456.50677419901183Q1294.1423770813772 456.50677419901183 1287.7285456233371 450.09294274097203Q1281.3147141652976 443.6512250592016 1281.3147141652976 434.0304778721419L1281.3147141652976 434.0304778721419L1281.3147141652976 378.20225796346483Q1281.3147141652976 371.5653367155802 1283.8244743010519 367.04776847122173Q1286.334234436807 362.53020022686314 1290.2383057590919 359.74157785380237Q1294.1423770813772 356.92506925701105 1298.8830351155802 355.7259616365949Q1303.5958069260532 354.49896779244807 1308.1970338416036 354.49896779244807L1308.1970338416036 354.49896779244807ZM1353.9862132072617 378.20225796346483L1353.9862132072617 432.8034840279952Q1353.9862132072617 439.8308124081083 1351.476453071507 444.34838065246674Q1348.9666929357522 448.86594889682533 1345.062621613467 451.5987988224249Q1341.1306640674516 454.3037625242938 1336.306347362056 455.39132524978754Q1331.5099168803918 456.50677419901183 1327.0760073072247 456.50677419901183L1327.0760073072247 456.50677419901183L1327.0760073072247 385.84308326565144Q1327.0760073072247 383.41698180108847 1326.7692588461882 381.21397012637044Q1326.4903966088823 379.0109584516524 1325.570151225772 377.3098988040854Q1324.6777920663926 375.5809529327877 1322.9767324188256 374.49339020729394Q1321.247786547528 373.37794125806965 1318.236074384622 373.37794125806965L1318.236074384622 373.37794125806965Q1316.6465596319777 373.37794125806965 1314.9454999844106 373.87989328522065Q1313.216554113113 374.3818453123715 1311.8222429265825 375.5809529327877L1311.8222429265825 375.5809529327877Q1311.0135424383948 373.99143818014306 1310.8183388722805 372.4855820986902Q1310.6231353061662 370.97972601723734 1310.6231353061662 369.3623250408622L1310.6231353061662 369.3623250408622Q1310.6231353061662 362.94849358282227 1316.0330627099042 358.7376737995005Q1321.4708763373728 354.49896779244807 1329.0838154158287 354.49896779244807L1329.0838154158287 354.49896779244807Q1341.1306640674516 354.49896779244807 1347.5723817492217 360.6339370131818Q1353.9862132072617 366.7689062339156 1353.9862132072617 378.20225796346483L1353.9862132072617 378.20225796346483Z " fill="#3d155f" transform="matrix(0.6462399855942336,0,0,0.6462399855942336,0,52.93245177794674)"/></g></svg>